<?xml version="1.0" standalone="no"?>
<!DOCTYPE svg PUBLIC "-//W3C//DTD SVG 20010904//EN"
 "http://www.w3.org/TR/2001/REC-SVG-20010904/DTD/svg10.dtd">
<svg version="1.0" xmlns="http://www.w3.org/2000/svg"
 width="1024.000000pt" height="1024.000000pt" viewBox="0 0 1024.000000 1024.000000"
 preserveAspectRatio="xMidYMid meet">
<metadata>
Created by potrace 1.14, written by Peter Selinger 2001-2017
</metadata>
<g transform="translate(0.000000,1024.000000) scale(0.100000,-0.100000)"
fill="#000000" stroke="none">
<path d="M0 5120 l0 -5120 5120 0 5120 0 0 5120 0 5120 -5120 0 -5120 0 0
-5120z m5796 2815 c168 -30 305 -85 449 -180 203 -135 368 -322 478 -541 45
-90 112 -282 127 -366 6 -35 13 -72 15 -84 4 -20 5 -20 569 -19 311 1 570 -1
575 -5 16 -9 -91 -131 -619 -705 -527 -574 -653 -710 -758 -816 l-104 -107 62
-98 c144 -230 223 -452 251 -710 68 -629 -329 -1257 -919 -1454 -196 -65 -197
-65 -957 -65 -629 0 -697 2 -775 18 -240 52 -454 164 -629 332 -233 223 -377
493 -436 815 -12 66 -19 171 -22 344 l-5 249 452 -6 c249 -3 454 -8 455 -9 2
-2 -4 -37 -12 -78 -10 -54 -13 -119 -10 -230 4 -135 8 -166 32 -240 45 -139
92 -222 193 -338 29 -34 59 -59 64 -55 6 3 8 1 5 -5 -7 -9 77 -92 93 -92 7 0
60 93 350 618 61 111 116 202 121 202 6 0 7 -4 4 -10 -9 -14 8 -12 25 3 12 10
12 9 2 -4 -10 -13 -9 -19 2 -28 7 -6 20 -9 29 -5 8 3 18 1 21 -5 4 -6 13 -8
21 -4 8 3 23 2 32 -1 12 -5 14 -9 5 -18 -17 -17 -15 -25 8 -31 11 -3 20 -1 20
4 0 5 5 9 10 9 7 0 7 -6 1 -18 -8 -15 -5 -18 17 -19 15 -1 22 1 15 3 -16 7 -5
34 14 34 8 0 11 -4 8 -10 -3 -5 -1 -10 4 -10 6 0 11 4 11 9 0 5 9 7 20 4 11
-3 20 -1 20 5 0 16 31 24 46 11 7 -6 10 -17 7 -26 -5 -13 -2 -13 14 -5 20 11
33 7 33 -10 0 -5 -6 -6 -12 -2 -9 5 -9 2 1 -9 7 -9 19 -17 25 -17 6 0 5 4 -3
9 -8 5 -9 11 -3 15 5 3 13 -1 16 -10 3 -8 10 -12 16 -9 5 3 10 2 10 -4 0 -5
-6 -12 -12 -15 -7 -3 -2 -4 12 -3 17 1 24 -3 22 -12 -2 -9 3 -11 13 -7 11 4
19 -3 25 -20 7 -17 15 -24 25 -20 8 3 17 1 20 -4 3 -4 -1 -10 -7 -12 -8 -3 -5
-9 9 -17 20 -10 22 -9 18 6 -3 10 1 5 9 -12 12 -26 14 -27 19 -10 4 18 5 17 6
-2 2 -37 1 -38 -8 -38 -5 0 -12 -3 -15 -7 -3 -5 -3 -6 1 -3 3 3 12 0 20 -6 10
-9 13 -8 13 5 0 11 8 16 28 15 15 0 21 -3 14 -6 -10 -4 -8 -9 7 -20 12 -8 25
-12 31 -8 12 8 50 -25 50 -45 0 -13 1 -13 10 0 9 14 11 12 14 -20 0 -8 13 -16
29 -18 15 -2 27 -8 27 -13 0 -6 -6 -7 -12 -3 -10 5 -10 3 0 -7 11 -12 14 -12
23 1 8 12 9 11 7 -5 -2 -15 2 -19 17 -17 28 5 13 -8 -16 -13 -13 -3 -25 -9
-27 -15 -2 -6 -9 -7 -15 -3 -7 4 -5 -2 3 -12 9 -11 10 -16 3 -11 -18 10 -41
-40 -25 -56 17 -17 -8 -40 -28 -24 -13 9 -13 9 -2 -6 10 -13 11 -22 2 -37 -8
-16 -8 -21 1 -21 7 0 9 -3 6 -7 -10 -9 23 -43 42 -43 18 -1 -35 -51 -139 -132
-76 -60 -61 -58 36 5 84 53 177 137 213 191 14 21 33 49 41 61 77 112 129 235
156 365 22 110 15 260 -15 341 -36 96 -22 84 -591 454 -162 105 -461 301 -665
435 -203 134 -433 285 -510 335 -77 50 -423 278 -770 507 -346 228 -690 454
-763 501 l-132 87 -203 2 c-111 2 26 3 304 2 l506 -1 16 91 c97 548 549 1013
1068 1100 130 22 1481 22 1605 1z m-803 -3662 c-7 -2 -19 -2 -25 0 -7 3 -2 5
12 5 14 0 19 -2 13 -5z m141 -25 c-3 -4 -9 -8 -15 -8 -5 0 -9 4 -9 8 0 5 7 9
15 9 8 0 12 -4 9 -9z m-109 -8 c3 -5 1 -10 -4 -10 -6 0 -11 5 -11 10 0 6 2 10
4 10 3 0 8 -4 11 -10z m605 -340 c0 -5 -5 -10 -11 -10 -5 0 -7 5 -4 10 3 6 8
10 11 10 2 0 4 -4 4 -10z m5 -260 c-3 -4 1 -10 7 -13 7 -2 1 -4 -13 -4 -14 0
-26 5 -26 12 0 8 7 11 15 7 11 -4 13 -1 7 8 -5 9 -4 11 4 6 6 -4 9 -11 6 -16z
m44 -26 c-17 -21 -31 -17 -17 5 7 11 16 17 20 14 5 -2 4 -11 -3 -19z m-1423
-972 c10 0 31 -2 47 -5 15 -3 27 -1 27 4 0 5 10 9 23 9 17 0 19 -2 7 -10 -12
-8 -12 -10 4 -16 11 -4 22 -1 28 7 7 11 11 11 15 2 7 -19 19 -16 43 9 11 12
23 18 27 15 3 -4 1 -7 -5 -7 -7 0 -12 -7 -12 -16 0 -12 3 -14 13 -6 17 14 38
1 40 -25 1 -17 4 -19 18 -10 10 6 15 15 12 21 -3 5 -1 6 4 3 6 -4 18 2 28 13
9 10 25 18 35 17 20 -1 17 -17 -3 -17 -12 0 -180 -158 -207 -195 -14 -19 -101
-99 -650 -594 -107 -97 -250 -227 -318 -289 -68 -63 -126 -111 -129 -109 -2 3
9 36 25 74 17 37 53 124 80 193 28 69 80 197 117 285 37 88 83 198 102 245 19
47 44 104 54 127 10 23 19 46 19 51 0 5 11 14 24 20 18 8 23 16 19 31 -3 13
-1 21 6 21 7 0 9 5 6 10 -3 6 -1 10 5 10 7 0 9 7 6 16 -3 8 -2 12 4 9 6 -3 10
1 10 10 0 8 7 18 16 22 8 3 13 12 10 19 -3 7 -1 16 5 19 5 4 12 -1 15 -9 3 -9
10 -14 15 -11 4 3 6 11 3 19 -3 8 5 13 23 14 28 1 68 8 68 13 0 1 23 2 52 3
36 1 49 -2 43 -9 -6 -7 -2 -11 10 -11 10 0 16 4 14 8 -8 13 11 9 25 -4 10 -11
12 -10 9 2 -2 11 5 14 30 12 21 -1 31 2 27 8 -3 5 1 10 10 10 9 0 13 -4 10
-10 -3 -5 0 -10 8 -10 8 0 18 7 21 15 4 12 10 13 24 6 10 -6 27 -10 38 -9z"/>
<path d="M4700 6733 c0 -5 -237 -7 -527 -6 -301 2 -523 -1 -517 -6 5 -5 32
-25 59 -46 28 -20 66 -51 85 -69 19 -17 54 -46 78 -64 23 -19 59 -49 80 -68
59 -56 92 -85 167 -149 39 -33 72 -62 75 -65 3 -3 52 -46 110 -94 58 -49 110
-94 115 -101 6 -6 39 -35 75 -64 89 -73 169 -142 194 -166 11 -11 50 -45 86
-75 75 -63 112 -96 185 -163 59 -53 105 -90 105 -85 0 3 24 -17 53 -43 55 -51
309 -275 366 -325 19 -16 42 -36 51 -44 27 -25 112 -101 195 -175 151 -134
185 -168 179 -176 -3 -5 2 -6 11 -3 10 4 19 -4 30 -27 8 -19 14 -28 15 -21 0
6 5 12 11 12 6 0 8 -8 4 -19 -3 -12 0 -21 10 -25 9 -3 14 -10 11 -14 -3 -5 6
-14 20 -21 26 -12 162 -97 363 -229 63 -42 121 -75 128 -75 7 0 11 -3 8 -5 -6
-6 157 -108 168 -104 4 1 7 -3 7 -10 0 -6 3 -8 7 -5 3 4 13 -2 20 -13 8 -11
19 -18 24 -15 5 4 9 2 9 -3 0 -5 7 -9 16 -9 15 0 15 1 0 12 -9 7 -16 16 -16
20 0 4 -48 66 -108 139 -59 72 -141 174 -183 226 -438 550 -856 1071 -967
1205 -46 55 -79 101 -73 103 11 4 113 -32 236 -83 47 -19 87 -35 89 -35 2 0
16 28 31 63 15 34 49 109 75 167 39 86 116 259 235 525 7 17 32 71 54 121 23
51 41 97 41 103 0 8 -203 11 -745 11 -410 0 -745 -3 -745 -7z m110 -135 c19
-24 26 -37 17 -29 -19 15 -61 71 -54 71 2 0 19 -19 37 -42z m71 -85 c13 -16
12 -17 -3 -4 -10 7 -18 15 -18 17 0 8 8 3 21 -13z"/>
<path d="M4910 4253 c0 -6 8 -17 18 -24 16 -13 16 -13 2 6 -8 11 -16 22 -17
24 -2 2 -3 0 -3 -6z"/>
<path d="M4949 4237 c7 -7 14 -8 21 -1 6 6 2 10 -12 11 -16 2 -18 -1 -9 -10z"/>
<path d="M5127 4193 c-13 -12 -7 -22 10 -16 12 5 14 3 8 -8 -8 -12 -6 -12 9 0
13 11 14 16 4 22 -16 11 -23 11 -31 2z"/>
<path d="M5070 4180 c0 -5 8 -14 18 -19 14 -9 14 -10 2 -11 -9 0 -21 5 -28 12
-9 10 -16 8 -30 -7 -12 -14 -13 -16 -1 -7 19 14 30 6 22 -16 -4 -14 -3 -15 6
-2 5 8 13 11 17 7 4 -3 2 -13 -4 -20 -17 -20 5 -39 30 -26 21 11 24 -1 6 -20
-11 -11 -10 -13 1 -9 14 4 36 49 23 47 -21 -3 -32 2 -26 13 4 7 3 8 -4 4 -7
-4 -12 -2 -12 3 0 6 7 11 15 11 14 0 13 3 -2 25 -19 25 -33 32 -33 15z m24
-81 c-3 -5 -10 -7 -15 -3 -5 3 -7 10 -3 15 3 5 10 7 15 3 5 -3 7 -10 3 -15z"/>
<path d="M5147 4064 c6 -16 19 -18 27 -5 3 5 -3 11 -13 14 -14 3 -18 1 -14 -9z"/>
<path d="M5310 4021 c-7 -15 -7 -21 0 -21 12 0 25 28 17 36 -3 3 -10 -4 -17
-15z"/>
<path d="M5254 3978 c10 -5 23 -5 34 1 14 8 10 10 -16 9 -26 -1 -30 -3 -18
-10z"/>
<path d="M5321 3974 c0 -11 3 -14 6 -6 3 7 2 16 -1 19 -3 4 -6 -2 -5 -13z"/>
<path d="M5246 3951 c-3 -5 1 -14 8 -20 10 -9 16 -9 21 -1 4 6 1 9 -7 8 -7 -2
-12 3 -10 10 2 14 -4 16 -12 3z"/>
<path d="M5296 3953 c-14 -14 -4 -22 22 -18 20 2 29 -1 29 -11 0 -8 -4 -14 -9
-14 -4 0 -8 4 -8 10 0 5 -8 6 -17 3 -11 -4 -13 -8 -5 -11 7 -2 10 -7 8 -11 -3
-4 13 -7 35 -7 29 -1 38 3 35 13 -5 12 7 18 29 13 6 -1 4 4 -2 11 -10 10 -17
9 -34 -7 -20 -17 -22 -17 -16 -1 4 9 2 17 -3 17 -18 0 -25 2 -41 11 -9 4 -19
5 -23 2z"/>
<path d="M5397 3891 c-18 -17 -28 -33 -23 -38 5 -4 11 -2 13 5 3 6 9 9 14 6 6
-3 4 -17 -6 -32 l-16 -27 20 23 c22 25 28 20 26 -20 -1 -22 2 -25 13 -16 10 9
11 13 0 19 -10 6 -10 10 0 19 6 5 10 7 7 4 -2 -4 6 -15 18 -25 20 -17 20 -18
3 -19 -15 0 -11 -7 19 -34 23 -22 34 -39 30 -47 -6 -8 -4 -10 5 -4 7 4 15 3
19 -3 4 -7 12 -8 21 -2 13 8 13 10 -1 10 -9 0 -20 7 -23 16 -4 12 -2 15 9 10
20 -8 42 -14 32 -9 -4 3 -5 9 -1 14 3 5 -3 9 -13 10 -12 0 -13 2 -5 6 10 4 7
9 -8 20 -17 12 -19 17 -9 24 10 6 10 9 2 9 -7 0 -10 7 -6 17 5 13 2 15 -11 10
-10 -4 -24 -1 -32 8 -11 10 -21 12 -39 5 -24 -9 -29 -6 -26 13 1 5 -4 5 -10 1
-8 -5 -9 -3 -5 5 5 7 14 10 21 7 7 -2 15 4 18 14 8 31 -21 31 -56 1z m86 -74
c-3 -5 -10 -4 -15 1 -6 6 -7 16 -3 22 6 9 9 9 16 -1 4 -7 5 -17 2 -22z m24 -4
c-4 -3 -2 -12 5 -20 8 -11 7 -12 -6 -7 -9 3 -16 9 -16 13 0 9 11 21 18 21 3 0
2 -3 -1 -7z"/>
<path d="M5470 3895 c-7 -9 -10 -18 -6 -22 3 -3 6 -1 6 5 0 7 6 12 14 12 8 0
18 5 21 10 10 16 -21 11 -35 -5z"/>
<path d="M5340 3880 c-13 -8 -12 -10 3 -10 9 0 17 5 17 10 0 12 -1 12 -20 0z"/>
</g>
</svg>
